<svg width="16" height="16" viewBox="0 0 16 16" fill="none" xmlns="http://www.w3.org/2000/svg">
<g id="camera-plus">
<path id="Icon" d="M14.6666 7.66683V9.7335C14.6666 11.227 14.6666 11.9737 14.3759 12.5441C14.1203 13.0459 13.7123 13.4539 13.2106 13.7095C12.6401 14.0002 11.8934 14.0002 10.3999 14.0002H5.59992C4.10645 14.0002 3.35971 14.0002 2.78928 13.7095C2.28751 13.4539 1.87956 13.0459 1.6239 12.5441C1.33325 11.9737 1.33325 11.227 1.33325 9.7335V6.26683C1.33325 4.77336 1.33325 4.02662 1.6239 3.45619C1.87956 2.95442 2.28751 2.54647 2.78928 2.29081C3.35971 2.00016 4.10645 2.00016 5.59992 2.00016H8.33325M12.6666 5.3335V1.3335M10.6666 3.3335H14.6666M10.6666 8.00016C10.6666 9.47292 9.47268 10.6668 7.99992 10.6668C6.52716 10.6668 5.33325 9.47292 5.33325 8.00016C5.33325 6.5274 6.52716 5.3335 7.99992 5.3335C9.47268 5.3335 10.6666 6.5274 10.6666 8.00016Z" stroke="#6366F1" stroke-width="1.66667" stroke-linecap="round" stroke-linejoin="round"/>
</g>
</svg>
